# xmcd
#
# Track frame offsets:
#	150
#	16098
#	31347
#	42337
#	56969
#	70681
#	88283
#	97617
#	114443
#	128349
#	145372
#	156950
#
# Disc length: 2312 seconds
#
# Revision: 1
# Processed by: cddbd v1.5.2PL0 Copyright (c) Steve Scherf et al.
# Submitted via: audiograbber 1.83.01
#
DISCID=9609060c
DTITLE=David Waddell - Truck Broke Down
DYEAR=1900
DGENRE=Country
TTITLE0=Truck Broke Down
TTITLE1=Smokey Mountain Rain
TTITLE2=Hard Times For The Working Man
TTITLE3=I Can't Win
TTITLE4=Drums Of War
TTITLE5=All For Nothing
TTITLE6=Land Of The Dixie
TTITLE7=Greatest Love Of All
TTITLE8=Lovin´ On The Bayou
TTITLE9=Lady And The Outlaw
TTITLE10=Wake Up America
TTITLE11=True Blue
EXTD=
EXTT0=
EXTT1=
EXTT2=
EXTT3=
EXTT4=
EXTT5=
EXTT6=
EXTT7=
EXTT8=
EXTT9=
EXTT10=
EXTT11=
PLAYORDER=
